<svg xmlns="http://www.w3.org/2000/svg" width="61.03" height="60" viewBox="0 0 61.03 60"><g transform="translate(-2423.543 -916.684)"><path d="M2453.986,976.684a29.67,29.67,0,0,1-9.6-1.588c-11.356-3.72-19.047-12.7-20.574-24.013-1.565-11.593,3.8-22.988,14.015-29.737a30.41,30.41,0,0,1,16.431-4.662,30,30,0,0,1,14.161,3.412l.094.052c8.711,4.963,14.73,13.782,15.72,23.028a27.689,27.689,0,0,1-6.465,22.525,31.642,31.642,0,0,1-23.777,10.983Z" fill="#ec6245"/><path d="M2474.854,951.479c-1.085-.419-2.3,3.533-.819,3.547C2475.222,954.8,2476,952.16,2474.854,951.479Z" fill="#fff"/><path d="M2471.749,942.557c.143.5,1.035.261,1.048-.207.057-.58-.358-1.59-.77-1.5C2471.589,940.944,2471.588,941.942,2471.749,942.557Z" fill="#fff"/><path d="M2471.986,939.222c.084-.547-.32-1.673-1.016-1.493-.715.307.333,1.685.492,1.952C2471.657,939.5,2471.9,939.5,2471.986,939.222Z" fill="#fff"/><path d="M2471.357,951.461c.6.149,1.231.22,1.784.334.132-.355.332-.371.452-.647-4.125-.56-7.893-2.2-11.767-3.366a7.058,7.058,0,0,0-1.818.346,17.039,17.039,0,0,1,2.1.647c.2.047.64.177.606.542-.45.576-1.6-.288-2.315-.4-2.09-.9-3.595.294-5.736.834,1.892.38,3.693.85,5.44,1.374.124.012-.144.382-.013.388,4.527.214,7.974,2.4,12.533,3.139a1.215,1.215,0,0,1-.111-.9c-2.043-.607-4.646-.932-6.27-2.275,0-.344.642-.109.727-.081a46.76,46.76,0,0,0,5.627,1.669,1.519,1.519,0,0,0,.216-.565c-.374-.086-.687-.177-1.1-.3-.207-.058-.964-.164-.916-.485C2470.824,951.5,2471.181,951.417,2471.357,951.461Zm-8.67-.529a6.28,6.28,0,0,1-2.325-.687c-.069-.036-1.073-.547-.475-.686a10.44,10.44,0,0,1,1.508.539C2461.679,950.224,2463.187,950.428,2462.687,950.932Z" fill="#fff"/><path d="M2471.425,942.949a2.441,2.441,0,0,1-.245-1.893c-.879.357-1.966.309-2.787,1.039-3.993,1.05,1.495-1.771,2.432-2.123a3.527,3.527,0,0,0-.415-.643c-.41.03-1.143.766-1.489.461-.146-.561.916-.744,1.249-.981-.152-.207-.029-.53-.046-.722-1.882.972-3.875,2.29-5.85,3.189-2.213.56-4.478,1.34-6.659,2.057-7.429,3.254-15.19,5.639-22.816,8.4.118.184.348.49.51.72a14.672,14.672,0,0,1,2.129-.823c.3-.106.919-.486.991-.1-.287.985-2.219.979-2.959,1.517a8,8,0,0,1,.182.836c.369-.191.737-.366,1.175-.568.213-.1,1.133-.619,1.2-.165.047.3-.213.39-.425.469-.538.2-1.29.665-1.912.825.06.315-.107.549-.034.707,7.794-2.219,15.016-5.566,22.614-8.192C2462.654,945.526,2466.866,943.822,2471.425,942.949Zm-26.22,7.81c-1.489.384-3.231,1.37-4.71,1.354a.788.788,0,0,1,.551-.623c1.29-.383,2.82-.9,4.144-1.342C2445.886,950.1,2446.093,950.731,2445.205,950.759Zm3.179-2.349c-.631.216-1.225.356-1.873.617-.2.083-.846.309-.891-.052-.023-.185.339-.331.511-.413.636-.3,1.542-.493,2.11-.715.2-.079.524-.338.721-.1C2449.014,948.129,2448.66,948.315,2448.384,948.41Zm3.478-.114c-.2.078-.465.253-.645.045.766-1.251,3.285-1.428,4.645-2.226C2457.827,946.513,2452.3,947.909,2451.862,948.3Zm12.18-4.548c.086.363-.643.662-.9.757-1.291.281-2.534,1.308-3.807,1.056.647-1.016,2.677-1.131,3.818-1.751C2463.45,943.7,2463.96,943.4,2464.042,943.748Zm-5.742.22c1.3-.53,2.639-1.006,4.082-1.445.266-.083.882-.29.961.113s-.766.625-1.127.724c-1.438.18-3.169,1.405-4.458.97C2457.8,944.073,2458.1,944.05,2458.3,943.968Z" fill="#fff"/><path d="M2433.417,952.142c-1.689.858-.051,5.064,1.406,3.046C2434.9,954.433,2434.69,951.793,2433.417,952.142Z" fill="#fff"/><path d="M2445.831,945.623a21.469,21.469,0,0,0,3.959-1.077c-.579-.288-1.81-.3-2.235-.862.645-.7,2.341.426,3.15.515.748-.248,1.28-.42,2.047-.65-2.795-.742-5.5-1.482-8.348-2.1-.434-.813-.757-1.738-1.211-2.531a1.707,1.707,0,0,1-1.8,1c.366.747,1,1.251,1.319,2.02-.815.442-1.276-.731-1.6-1.2-1.977-.267-3.17-1.029-5.08-1.363a1.321,1.321,0,0,1,.2,1.1,20.5,20.5,0,0,1,3.168.923c.241.065.915.112.915.4,0,.4-.72.123-.969.054a15.169,15.169,0,0,1-3.177-.942,6.153,6.153,0,0,1-.189.807c.441.041,1.32.089,1.293.458-.023.321-.365.276-.593.211-.3-.087-.765-.044-.986-.139-.138.3-.272.276-.521.467C2438.488,943.8,2442.366,944.672,2445.831,945.623Zm-7.539-3.312c1.846.445,3.791,1.08,5.655,1.589.217.058.635.064.565.457a.679.679,0,0,1-.745.107c-1.388-.374-2.678-.769-4.12-1.158C2439.412,943.263,2437.628,942.646,2438.292,942.311Z" fill="#fff"/><path d="M2441.472,939.2c.59.006,1.4-.245,1.371-.974C2442.226,936.672,2439.411,938.62,2441.472,939.2Z" fill="#fff"/><path d="M2434.6,942.511c.818-.189,1.692-3.795.005-3.189C2434.081,939.6,2433.2,943.016,2434.6,942.511Z" fill="#fff"/><path d="M2482.126,943.453c-.9-8.6-6.517-16.817-14.665-21.459l-.047-.026a27.877,27.877,0,0,0-13.157-3.159A28.235,28.235,0,0,0,2439,923.118c-9.524,6.3-14.536,16.9-13.082,27.681,1.417,10.495,8.572,18.824,19.143,22.283a27.577,27.577,0,0,0,8.928,1.478h0a29.494,29.494,0,0,0,22.162-10.238A25.6,25.6,0,0,0,2482.126,943.453ZM2454.06,973.11a26.25,26.25,0,1,1,26.25-26.251A26.251,26.251,0,0,1,2454.06,973.11Z" fill="#fff"/></g></svg>