<?xml version="1.0" standalone="no"?>
<!DOCTYPE svg PUBLIC "-//W3C//DTD SVG 20010904//EN"
 "http://www.w3.org/TR/2001/REC-SVG-20010904/DTD/svg10.dtd">
<svg version="1.0" xmlns="http://www.w3.org/2000/svg"
 width="257.000000pt" height="257.000000pt" viewBox="0 0 257.000000 257.000000"
 preserveAspectRatio="xMidYMid meet">
<metadata>
Created by potrace 1.14, written by Peter Selinger 2001-2017
</metadata>
<g transform="translate(0.000000,257.000000) scale(0.100000,-0.100000)"
fill="#000000" stroke="none">
<path d="M320 1851 c-19 -4 -100 -6 -179 -6 l-143 0 5 -160 c3 -88 6 -160 6
-160 1 -1 56 -2 123 -4 68 -1 124 -4 125 -5 5 -4 17 -474 17 -633 0 -102 3
-153 10 -154 17 -1 269 2 283 3 9 1 11 96 8 400 l-5 400 120 -5 120 -4 2 36
c0 20 2 93 4 164 2 144 12 131 -91 128 -144 -3 -355 -2 -362 1 -4 3 -24 2 -43
-1z"/>
<path d="M1410 1782 c-11 -37 -30 -109 -43 -161 l-23 -95 -27 80 c-15 43 -40
113 -55 154 l-28 75 -119 3 c-66 1 -126 -2 -133 -6 -10 -7 -13 -121 -16 -555
-2 -491 -1 -547 13 -548 47 -4 233 1 241 6 7 5 15 310 11 455 0 17 13 0 42
-55 23 -44 48 -80 56 -80 8 0 34 37 58 83 35 68 43 78 44 55 1 -15 2 -68 4
-118 2 -49 5 -146 6 -213 1 -80 6 -125 13 -127 6 -2 63 -5 128 -7 l116 -4 4
30 c1 17 3 270 3 561 l0 530 -137 2 -138 2 -20 -67z"/>
<path d="M1928 1842 c-56 -2 -68 -6 -69 -20 0 -9 -2 -35 -4 -57 -4 -46 -4
-566 0 -833 1 -101 7 -188 12 -193 5 -5 72 -10 148 -11 l140 -3 3 210 c2 115
5 212 8 215 3 3 24 6 47 6 98 3 113 5 125 13 13 8 16 62 13 200 l-1 33 -99 -4
-99 -4 -6 26 c-4 23 1 151 7 156 1 1 83 4 182 7 99 3 189 8 200 10 11 3 23 6
28 6 9 1 9 222 -1 238 -6 9 -79 11 -287 10 -154 -1 -310 -3 -347 -5z"/>
</g>
</svg>
